<svg width="200" height="200" viewBox="0 0 100 100" fill="none" xmlns="http://www.w3.org/2000/svg">
  <rect width="100" height="100" fill="#FFFFFF" />
  <g stroke="#000000" stroke-width="2.75" stroke-linecap="round">

    <circle cx="50" cy="50" r="10" />

    <line x1="50" y1="40" x2="50" y2="15" />
    <line x1="50" y1="8" x2="50" y2="8" /> <line x1="50" y1="60" x2="50" y2="85" />
    <line x1="50" y1="92" x2="50" y2="92" /> <line x1="40" y1="50" x2="15" y2="50" />
    <line x1="8" y1="50" x2="8" y2="50" /> <line x1="60" y1="50" x2="85" y2="50" />
    <line x1="92" y1="50" x2="92" y2="50" /> <line x1="50" y1="40" x2="50" y2="12" transform="rotate(45 50 50)" />
    <line x1="50" y1="40" x2="50" y2="12" transform="rotate(135 50 50)" />
    <line x1="50" y1="40" x2="50" y2="12" transform="rotate(225 50 50)" />
    <line x1="50" y1="40" x2="50" y2="12" transform="rotate(315 50 50)" />

    <line x1="50" y1="40" x2="50" y2="24" transform="rotate(22.5 50 50)" />
    <line x1="50" y1="40" x2="50" y2="24" transform="rotate(67.5 50 50)" />
    <line x1="50" y1="40" x2="50" y2="24" transform="rotate(112.5 50 50)" />
    <line x1="50" y1="40" x2="50" y2="24" transform="rotate(157.5 50 50)" />
    <line x1="50" y1="40" x2="50" y2="24" transform="rotate(202.5 50 50)" />
    <line x1="50" y1="40" x2="50" y2="24" transform="rotate(247.5 50 50)" />
    <line x1="50" y1="40" x2="50" y2="24" transform="rotate(292.5 50 50)" />
    <line x1="50" y1="40" x2="50" y2="24" transform="rotate(337.5 50 50)" />
  </g>
</svg>
